<svg width="70" height="122" viewBox="0 0 70 122" fill="none" xmlns="http://www.w3.org/2000/svg">
<g clip-path="url(#clip0_2_39)">
<path opacity="0.6" d="M19.1086 3.70227L-10.4359 33.4638C-15.3201 38.3839 -15.3201 46.361 -10.4359 51.281L19.1086 81.0426C23.9929 85.9627 31.9117 85.9627 36.7959 81.0426L66.3405 51.2811C71.2247 46.361 71.2247 38.3839 66.3405 33.4639L36.7959 3.70227C31.9117 -1.21781 23.9928 -1.21781 19.1086 3.70227Z" fill="#6CEEC7"/>
<g opacity="0.9">
<path opacity="0.8" d="M11.8341 94.5721C11.108 94.5725 10.389 94.4282 9.71852 94.1475C9.04803 93.8668 8.43928 93.4552 7.92733 92.9366L-3.15881 81.6668C-3.67831 81.1545 -4.08987 80.542 -4.36885 79.8657C-4.64783 79.1895 -4.78849 78.4635 -4.7824 77.7313C-4.76977 76.2717 -4.1864 74.876 -3.15881 73.8469L8.02881 62.5771C9.08125 61.5648 10.4804 61 11.9356 61C13.3907 61 14.7899 61.5648 15.8424 62.5771L26.9285 73.8469C27.4439 74.3624 27.853 74.9755 28.1322 75.6509C28.4114 76.3263 28.5551 77.0508 28.5551 77.7824C28.5551 78.514 28.4114 79.2384 28.1322 79.9139C27.853 80.5893 27.4439 81.2024 26.9285 81.7179L15.7409 92.9877C14.6986 94.0166 13.2934 94.5865 11.8341 94.5721ZM11.8341 62.4749C11.3141 62.4698 10.7985 62.5714 10.3188 62.7735C9.83902 62.9756 9.40512 63.274 9.04355 63.6504L-2.16943 74.9202C-2.90073 75.6704 -3.31045 76.6798 -3.31045 77.7313C-3.31045 78.7827 -2.90073 79.7921 -2.16943 80.5423L9.04355 91.7355C9.79444 92.4602 10.7942 92.8648 11.8341 92.8648C12.874 92.8648 13.8738 92.4602 14.6247 91.7355L25.8123 80.4657C26.1804 80.0975 26.4727 79.6596 26.6721 79.1771C26.8715 78.6947 26.9741 78.1772 26.9741 77.6546C26.9741 77.132 26.8715 76.6146 26.6721 76.1321C26.4727 75.6497 26.1804 75.2117 25.8123 74.8436L14.5993 63.6249C14.2368 63.2585 13.8058 62.9682 13.3311 62.7708C12.8565 62.5734 12.3476 62.4728 11.8341 62.4749Z" fill="#6CEEC7"/>
</g>
</g>
<defs>
<clipPath id="clip0_2_39">
<rect width="86" height="122" fill="white" transform="translate(-16)"/>
</clipPath>
</defs>
</svg>
