<svg width="93" height="46" viewBox="0 0 93 46" fill="none" xmlns="http://www.w3.org/2000/svg">
<g clip-path="url(#clip0_2_32)">
<path opacity="0.6" d="M88.9554 36.7238L56.2852 4.05354C50.8833 -1.34834 42.1251 -1.34834 36.7233 4.05354L4.05304 36.7238C-1.34884 42.1256 -1.34884 50.8838 4.05303 56.2857L36.7233 88.9559C42.1251 94.3578 50.8833 94.3578 56.2852 88.9559L88.9554 56.2857C94.3573 50.8838 94.3573 42.1256 88.9554 36.7238Z" fill="#6CEEC7"/>
<g opacity="0.8">
<path opacity="0.8" d="M6.03712 19.9341C6.03441 19.353 6.1473 18.7771 6.36924 18.2401C6.59118 17.703 6.91772 17.2154 7.32986 16.8057L16.8574 7.27817C17.268 6.86697 17.7557 6.54075 18.2925 6.31818C18.8293 6.09561 19.4047 5.98105 19.9858 5.98105C20.5669 5.98105 21.1424 6.09561 21.6792 6.31818C22.216 6.54075 22.7036 6.86697 23.1143 7.27817L32.6418 16.8057C33.053 17.2163 33.3792 17.704 33.6018 18.2408C33.8243 18.7776 33.9389 19.353 33.9389 19.9341C33.9389 20.5152 33.8243 21.0907 33.6018 21.6275C33.3792 22.1643 33.053 22.652 32.6418 23.0626L23.1143 32.5901C22.7036 33.0013 22.216 33.3275 21.6792 33.5501C21.1424 33.7727 20.5669 33.8872 19.9858 33.8872C19.4047 33.8872 18.8293 33.7727 18.2925 33.5501C17.7557 33.3275 17.268 33.0013 16.8574 32.5901L7.32986 23.0626C6.91772 22.6529 6.59118 22.1653 6.36924 21.6282C6.1473 21.0911 6.03441 20.5152 6.03712 19.9341ZM33.1847 19.9341C33.1882 19.4544 33.0962 18.9788 32.9143 18.535C32.7323 18.0911 32.4639 17.6878 32.1247 17.3486L22.5972 7.82112C21.9112 7.1359 20.9813 6.75102 20.0117 6.75102C19.0421 6.75102 18.1122 7.1359 17.4262 7.82112L7.89866 17.3486C7.21345 18.0346 6.82856 18.9645 6.82856 19.9341C6.82856 20.9037 7.21345 21.8336 7.89866 22.5196L17.4262 32.0471C18.1122 32.7324 19.0421 33.1172 20.0117 33.1172C20.9813 33.1172 21.9112 32.7324 22.5972 32.0471L32.1247 22.5196C32.4592 22.1783 32.7229 21.7741 32.9004 21.3303C33.0779 20.8865 33.1657 20.412 33.1589 19.9341L33.1847 19.9341Z" fill="#6CEEC7"/>
</g>
</g>
<defs>
<clipPath id="clip0_2_32">
<rect width="93" height="93" fill="white" transform="translate(93) rotate(90)"/>
</clipPath>
</defs>
</svg>
